<svg width="86" height="16" viewBox="0 0 86 16" fill="none" xmlns="http://www.w3.org/2000/svg">
<path d="M7.368 6.16C8.01867 6.352 8.52 6.688 8.872 7.168C9.23467 7.63733 9.416 8.21867 9.416 8.912C9.416 9.86133 9.064 10.6133 8.36 11.168C7.66667 11.7227 6.70667 12 5.48 12H1.288C0.914667 12 0.626667 11.8987 0.424 11.696C0.221333 11.4933 0.12 11.2053 0.12 10.832V1.888C0.12 1.51467 0.221333 1.22667 0.424 1.024C0.626667 0.821333 0.914667 0.719999 1.288 0.719999H5.32C6.49333 0.719999 7.42133 0.981333 8.104 1.504C8.79733 2.02667 9.144 2.74133 9.144 3.648C9.144 4.23467 8.984 4.752 8.664 5.2C8.35467 5.63733 7.92267 5.95733 7.368 6.16ZM2.552 5.312H4.904C5.544 5.312 6.01333 5.20533 6.312 4.992C6.62133 4.768 6.776 4.432 6.776 3.984C6.776 3.51467 6.62133 3.17333 6.312 2.96C6.01333 2.736 5.544 2.624 4.904 2.624H2.552V5.312ZM5.192 10.096C5.85333 10.096 6.33333 9.984 6.632 9.76C6.93067 9.536 7.08 9.17333 7.08 8.672C7.08 8.17067 6.93067 7.80267 6.632 7.568C6.33333 7.33333 5.85333 7.216 5.192 7.216H2.552V10.096H5.192ZM15.6473 3.984C15.9673 3.96267 16.2179 4.03733 16.3993 4.208C16.5913 4.368 16.6873 4.61333 16.6873 4.944C16.6873 5.296 16.6019 5.55733 16.4313 5.728C16.2606 5.89867 15.9566 6.00533 15.5193 6.048L15.0393 6.096C14.4526 6.16 14.0259 6.352 13.7593 6.672C13.5033 6.992 13.3753 7.40267 13.3753 7.904V10.96C13.3753 11.3333 13.2579 11.616 13.0233 11.808C12.7993 12 12.5166 12.096 12.1753 12.096C11.8233 12.096 11.5299 12 11.2953 11.808C11.0713 11.616 10.9593 11.3333 10.9593 10.96V5.088C10.9593 4.736 11.0766 4.464 11.3113 4.272C11.5459 4.08 11.8286 3.984 12.1593 3.984C12.4793 3.984 12.7459 4.08 12.9593 4.272C13.1726 4.45333 13.2793 4.70933 13.2793 5.04V5.472C13.4713 5.01333 13.7593 4.66133 14.1432 4.416C14.5379 4.17067 14.9646 4.032 15.4233 4L15.6473 3.984ZM18.5971 12.096C18.2451 12.096 17.9518 12 17.7171 11.808C17.4931 11.616 17.3811 11.3333 17.3811 10.96V5.12C17.3811 4.74667 17.4985 4.464 17.7331 4.272C17.9678 4.08 18.2558 3.984 18.5971 3.984C18.9385 3.984 19.2211 4.08 19.4451 4.272C19.6798 4.464 19.7971 4.74667 19.7971 5.12V10.96C19.7971 11.3333 19.6798 11.616 19.4451 11.808C19.2211 12 18.9385 12.096 18.5971 12.096ZM18.5971 2.704C18.1705 2.704 17.8345 2.59733 17.5891 2.384C17.3438 2.16 17.2211 1.86133 17.2211 1.488C17.2211 1.11467 17.3438 0.821333 17.5891 0.608C17.8345 0.394666 18.1705 0.287999 18.5971 0.287999C19.0131 0.287999 19.3438 0.399999 19.5891 0.624C19.8451 0.837333 19.9731 1.12533 19.9731 1.488C19.9731 1.86133 19.8505 2.16 19.6051 2.384C19.3598 2.59733 19.0238 2.704 18.5971 2.704ZM28.4628 3.984C28.8254 3.984 29.1134 4.09067 29.3268 4.304C29.5508 4.50667 29.6628 4.77867 29.6628 5.12V11.152C29.6628 12.4213 29.2948 13.3813 28.5588 14.032C27.8228 14.6827 26.7454 15.008 25.3268 15.008C24.1321 15.008 23.1508 14.7947 22.3828 14.368C22.1908 14.2613 22.0414 14.128 21.9348 13.968C21.8281 13.8187 21.7747 13.648 21.7747 13.456C21.7747 13.1893 21.8388 12.9707 21.9668 12.8C22.0948 12.6293 22.2654 12.544 22.4788 12.544C22.5961 12.544 22.7348 12.5653 22.8948 12.608C23.0548 12.6613 23.2201 12.72 23.3908 12.784C23.7321 12.912 24.0468 13.0133 24.3348 13.088C24.6228 13.1627 24.9321 13.2 25.2628 13.2C25.9454 13.2 26.4521 13.0453 26.7828 12.736C27.1134 12.4267 27.2788 11.9573 27.2788 11.328V10.464C27.0548 10.8693 26.7188 11.1893 26.2708 11.424C25.8228 11.6587 25.3214 11.776 24.7668 11.776C24.0841 11.776 23.4761 11.616 22.9428 11.296C22.4201 10.976 22.0094 10.5227 21.7108 9.936C21.4121 9.33867 21.2628 8.65067 21.2628 7.872C21.2628 7.09333 21.4121 6.41067 21.7108 5.824C22.0094 5.22667 22.4201 4.768 22.9428 4.448C23.4761 4.11733 24.0841 3.952 24.7668 3.952C25.3108 3.952 25.8014 4.06933 26.2388 4.304C26.6868 4.528 27.0281 4.84267 27.2628 5.248V5.088C27.2628 4.74667 27.3694 4.48 27.5828 4.288C27.8068 4.08533 28.1001 3.984 28.4628 3.984ZM25.4708 9.936C26.0361 9.936 26.4734 9.75467 26.7828 9.392C27.1028 9.02933 27.2628 8.52267 27.2628 7.872C27.2628 7.22133 27.1028 6.71467 26.7828 6.352C26.4734 5.97867 26.0361 5.792 25.4708 5.792C24.9054 5.792 24.4628 5.97867 24.1428 6.352C23.8228 6.71467 23.6628 7.22133 23.6628 7.872C23.6628 8.52267 23.8228 9.02933 24.1428 9.392C24.4628 9.75467 24.9054 9.936 25.4708 9.936ZM36.4978 3.952C38.3218 3.952 39.2338 5.056 39.2338 7.264V10.96C39.2338 11.312 39.1218 11.5893 38.8978 11.792C38.6844 11.9947 38.3911 12.096 38.0178 12.096C37.6444 12.096 37.3511 11.9947 37.1378 11.792C36.9244 11.5893 36.8178 11.312 36.8178 10.96V7.232C36.8178 6.76267 36.7164 6.416 36.5138 6.192C36.3218 5.95733 36.0178 5.84 35.6018 5.84C35.1004 5.84 34.6951 6 34.3858 6.32C34.0871 6.64 33.9378 7.06667 33.9378 7.6V10.96C33.9378 11.312 33.8311 11.5893 33.6178 11.792C33.4044 11.9947 33.1111 12.096 32.7378 12.096C32.3644 12.096 32.0658 11.9947 31.8418 11.792C31.6284 11.5893 31.5218 11.312 31.5218 10.96V1.744C31.5218 1.41333 31.6338 1.14667 31.8578 0.943999C32.0924 0.741333 32.3964 0.639999 32.7698 0.639999C33.1218 0.639999 33.4044 0.735999 33.6178 0.927999C33.8311 1.12 33.9378 1.376 33.9378 1.696V5.184C34.2151 4.77867 34.5724 4.47467 35.0098 4.272C35.4471 4.05867 35.9431 3.952 36.4978 3.952ZM45.4054 10.336C45.7254 10.3573 45.96 10.4373 46.1094 10.576C46.2587 10.7147 46.3334 10.9173 46.3334 11.184C46.3334 11.4933 46.2107 11.728 45.9654 11.888C45.72 12.048 45.368 12.112 44.9094 12.08L44.4614 12.048C42.5947 11.8987 41.6614 10.9227 41.6614 9.12V5.952H41.0214C40.6694 5.952 40.4027 5.87733 40.2214 5.728C40.04 5.568 39.9494 5.344 39.9494 5.056C39.9494 4.75733 40.04 4.53333 40.2214 4.384C40.4027 4.224 40.6694 4.144 41.0214 4.144H41.6614V2.896C41.6614 2.544 41.768 2.26667 41.9814 2.064C42.2054 1.86133 42.504 1.76 42.8774 1.76C43.2507 1.76 43.544 1.86133 43.7574 2.064C43.9707 2.26667 44.0774 2.544 44.0774 2.896V4.144H45.1974C45.9227 4.144 46.2854 4.448 46.2854 5.056C46.2854 5.344 46.1947 5.568 46.0134 5.728C45.832 5.87733 45.56 5.952 45.1974 5.952H44.0774V9.296C44.0774 9.616 44.152 9.86133 44.3014 10.032C44.4507 10.192 44.6694 10.2827 44.9574 10.304L45.4054 10.336Z" fill="#467DF2"/>
<path d="M65.8696 1.392C65.9656 1.136 66.1096 0.943999 66.3016 0.815999C66.5043 0.677333 66.7283 0.608 66.9736 0.608C67.283 0.608 67.5443 0.704 67.7576 0.896C67.9816 1.088 68.0936 1.34933 68.0936 1.68C68.0936 1.84 68.0616 2.016 67.9976 2.208L64.6696 11.312C64.5736 11.568 64.403 11.7707 64.1576 11.92C63.923 12.0587 63.6616 12.128 63.3736 12.128C63.0856 12.128 62.8243 12.0587 62.5896 11.92C62.355 11.7707 62.1896 11.568 62.0936 11.312L59.7096 4.576L57.2616 11.312C57.1656 11.568 57.0003 11.7707 56.7656 11.92C56.531 12.0587 56.2696 12.128 55.9816 12.128C55.7043 12.128 55.443 12.0587 55.1976 11.92C54.963 11.7707 54.7976 11.568 54.7016 11.312L51.3736 2.208C51.3096 2.02667 51.2776 1.856 51.2776 1.696C51.2776 1.36533 51.395 1.104 51.6296 0.912C51.8643 0.709333 52.1416 0.608 52.4616 0.608C52.7176 0.608 52.947 0.677333 53.1496 0.815999C53.363 0.943999 53.5176 1.136 53.6136 1.392L56.0776 8.48L58.6376 1.424C58.7336 1.168 58.883 0.970666 59.0856 0.832C59.299 0.693333 59.523 0.624 59.7576 0.624C60.003 0.624 60.227 0.693333 60.4296 0.832C60.6323 0.970666 60.7816 1.17333 60.8776 1.44L63.3256 8.608L65.8696 1.392ZM74.8883 9.664C75.1016 9.664 75.2723 9.74933 75.4003 9.92C75.5389 10.0907 75.6083 10.3093 75.6083 10.576C75.6083 10.7573 75.5549 10.928 75.4483 11.088C75.3416 11.2373 75.1923 11.3653 75.0003 11.472C74.6376 11.664 74.2163 11.824 73.7363 11.952C73.2563 12.0693 72.8136 12.128 72.4083 12.128C71.5549 12.128 70.8083 11.9627 70.1683 11.632C69.5389 11.3013 69.0536 10.832 68.7122 10.224C68.3709 9.60533 68.2003 8.88 68.2003 8.048C68.2003 7.248 68.3656 6.53867 68.6963 5.92C69.0269 5.30133 69.4856 4.82133 70.0723 4.48C70.6589 4.128 71.3256 3.952 72.0723 3.952C72.7869 3.952 73.4109 4.112 73.9443 4.432C74.4883 4.74133 74.9096 5.18933 75.2083 5.776C75.5069 6.352 75.6562 7.02933 75.6562 7.808C75.6562 8.04267 75.5976 8.224 75.4803 8.352C75.3736 8.46933 75.2189 8.528 75.0163 8.528H70.5363C70.6109 9.15733 70.8029 9.616 71.1123 9.904C71.4216 10.1813 71.8643 10.32 72.4403 10.32C72.7496 10.32 73.0269 10.2827 73.2723 10.208C73.5176 10.1333 73.7896 10.032 74.0883 9.904C74.2376 9.84 74.3816 9.78667 74.5203 9.744C74.6589 9.69067 74.7816 9.664 74.8883 9.664ZM72.1363 5.616C71.6776 5.616 71.3096 5.76533 71.0323 6.064C70.7549 6.352 70.5896 6.77333 70.5363 7.328H73.6243C73.5923 6.76267 73.4483 6.336 73.1923 6.048C72.9469 5.76 72.5949 5.616 72.1363 5.616ZM81.9795 3.952C82.6622 3.952 83.2648 4.11733 83.7875 4.448C84.3102 4.77867 84.7155 5.25333 85.0035 5.872C85.3022 6.48 85.4515 7.18933 85.4515 8C85.4515 8.81067 85.3022 9.53067 85.0035 10.16C84.7155 10.7787 84.3048 11.264 83.7715 11.616C83.2488 11.9573 82.6515 12.128 81.9795 12.128C81.4355 12.128 80.9448 12.016 80.5075 11.792C80.0702 11.5573 79.7342 11.2373 79.4995 10.832V10.96C79.4995 11.3013 79.3928 11.5787 79.1795 11.792C78.9662 11.9947 78.6782 12.096 78.3155 12.096C77.9528 12.096 77.6595 11.9947 77.4355 11.792C77.2222 11.5787 77.1155 11.3013 77.1155 10.96V1.744C77.1155 1.41333 77.2275 1.14667 77.4515 0.943999C77.6862 0.741333 77.9902 0.639999 78.3635 0.639999C78.7155 0.639999 78.9982 0.735999 79.2115 0.927999C79.4248 1.12 79.5315 1.376 79.5315 1.696V5.2C79.7662 4.80533 80.0968 4.50133 80.5235 4.288C80.9608 4.064 81.4462 3.952 81.9795 3.952ZM81.2755 10.288C81.8408 10.288 82.2782 10.0907 82.5875 9.696C82.8968 9.29067 83.0515 8.72533 83.0515 8C83.0515 7.28533 82.8968 6.74133 82.5875 6.368C82.2782 5.984 81.8408 5.792 81.2755 5.792C80.7102 5.792 80.2728 5.98933 79.9635 6.384C79.6542 6.768 79.4995 7.31733 79.4995 8.032C79.4995 8.75733 79.6542 9.31733 79.9635 9.712C80.2728 10.096 80.7102 10.288 81.2755 10.288Z" fill="#4F4E4F"/>
</svg>
