<svg width="50" height="50" viewBox="0 0 50 50" fill="none" xmlns="http://www.w3.org/2000/svg">
<path d="M34.4236 36.3195V39.6472C34.4236 41.8174 32.6646 43.5764 30.4944 43.5764H17.5916C15.4215 43.5764 13.6625 41.8174 13.6625 39.6472V11.0521C13.6625 8.88195 15.4215 7.12292 17.5916 7.12292H30.4941C32.6642 7.12292 34.4232 8.88195 34.4232 11.0521V18.7014" stroke="#3D6CB4" stroke-miterlimit="10" stroke-linecap="round" stroke-linejoin="round"/>
<path d="M13.6625 11.1111V11.0521C13.6625 8.88195 15.4215 7.12292 17.5916 7.12292H30.4941C32.6642 7.12292 34.4232 8.88195 34.4232 11.0521V11.1111H13.6625Z" stroke="#3D6CB4" stroke-miterlimit="10" stroke-linecap="round" stroke-linejoin="round"/>
<path opacity="0.3" d="M13.6049 11.1111V11.0521C13.6049 8.88195 15.3639 7.12292 17.534 7.12292H30.4365C32.6066 7.12292 34.3656 8.88195 34.3656 11.0521V11.1111H13.6049Z" fill="#528AC8"/>
<path d="M34.4236 39.5886V39.6476C34.4236 41.8177 32.6646 43.5768 30.4944 43.5768H17.5916C15.4215 43.5768 13.6625 41.8177 13.6625 39.6476V39.5886H34.4236Z" stroke="#3D6CB4" stroke-miterlimit="10" stroke-linecap="round" stroke-linejoin="round"/>
<path opacity="0.3" d="M34.4236 39.5886V39.6476C34.4236 41.8177 32.6646 43.5768 30.4944 43.5768H17.5916C15.4215 43.5768 13.6625 41.8177 13.6625 39.6476V39.5886H34.4236Z" fill="#528AC8"/>
<path d="M22.2025 41.7965H25.8837" stroke="#3D6CB4" stroke-miterlimit="10" stroke-linecap="round" stroke-linejoin="round"/>
<path d="M22.2025 9.11703H25.8837" stroke="#3D6CB4" stroke-miterlimit="10" stroke-linecap="round" stroke-linejoin="round"/>
<path d="M3.30835 17.5434V21.408" stroke="#3D6CB4" stroke-miterlimit="10" stroke-linecap="round" stroke-linejoin="round"/>
<path d="M5.47118 19.4757H1.14514" stroke="#3D6CB4" stroke-miterlimit="10" stroke-linecap="round" stroke-linejoin="round"/>
<path d="M8.05347 27.0191V29.609" stroke="#3D6CB4" stroke-miterlimit="10" stroke-linecap="round" stroke-linejoin="round"/>
<path d="M9.3486 28.3139H6.75867" stroke="#3D6CB4" stroke-miterlimit="10" stroke-linecap="round" stroke-linejoin="round"/>
<path d="M47.0639 25.4792L48.4319 24.8858L47.0333 21.6611L45.4597 22.3434C44.8778 21.574 44.2541 21.0007 43.576 20.5476L44.1802 18.8688L40.8583 17.5271L40.2288 19.1115C39.2555 18.9511 38.1993 18.9604 37.2538 19.1358L36.6469 17.7368L33.6371 19.042L34.2441 20.441C33.0399 21.1979 32.5812 21.8243 32.033 22.6448L30.3555 22.0399L29.0146 25.3615L30.6666 26.1462C30.534 26.9507 30.509 27.8059 30.6732 28.7563L28.975 29.4927L30.3736 32.7174L31.8666 32.0698C32.4982 33.0729 33.2882 33.808 34.2472 34.449L33.5854 35.9948L36.8785 37.2698L37.6462 35.5861C38.6194 35.7465 39.3837 35.8243 40.7594 35.4625L41.4694 37.0997L44.4792 35.7945L43.7691 34.1573C44.5434 33.5868 45.2795 32.8399 45.8278 32.0198L47.4288 32.6577L48.7316 29.3528L47.1757 28.842C47.3635 27.7038 47.3649 26.6257 47.0639 25.4792ZM40.8812 32.2097C38.208 33.3691 35.1014 32.142 33.942 29.4688C32.7826 26.7955 34.0097 23.6889 36.683 22.5295C39.3562 21.3702 42.4628 22.5972 43.6222 25.2705C44.7816 27.9434 43.5545 31.0504 40.8812 32.2097Z" stroke="#3D6CB4" stroke-miterlimit="10" stroke-linecap="round" stroke-linejoin="round"/>
<path opacity="0.3" d="M47.1024 25.508L48.4705 24.9146L47.0719 21.6899L45.4983 22.3722C44.9163 21.6028 44.2927 21.0295 43.6146 20.5764L44.2188 18.8976L40.8969 17.5559L40.2674 19.1403C39.2941 18.9799 38.2379 18.9892 37.2924 19.1646L36.6854 17.7656L33.6757 19.0708L34.2826 20.4698C33.0785 21.2267 32.6198 21.8531 32.0715 22.6736L30.3941 22.0688L29.0531 25.3903L30.7052 26.175C30.5726 26.9795 30.5476 27.8347 30.7118 28.7851L29.0135 29.5215L30.4122 32.7462L31.9052 32.0986C32.5368 33.1017 33.3267 33.8368 34.2858 34.4778L33.624 36.0236L36.917 37.2986L37.6847 35.6149C38.658 35.7754 39.4222 35.8531 40.7979 35.4913L41.508 37.1285L44.5177 35.8233L43.8076 34.1861C44.582 33.6156 45.3181 32.8688 45.8663 32.0486L47.4674 32.6865L48.7701 29.3816L47.2142 28.8708C47.4017 27.7326 47.4031 26.6545 47.1024 25.508ZM40.8813 32.2097C38.208 33.3691 35.1014 32.142 33.942 29.4688C32.7826 26.7955 34.0097 23.6889 36.683 22.5295C39.3563 21.3701 42.4629 22.5972 43.6222 25.2705C44.7816 27.9434 43.5545 31.0504 40.8813 32.2097Z" fill="#528AC8"/>
<path d="M16.4445 15.4705H28.9445" stroke="#3D6CB4" stroke-miterlimit="10" stroke-linecap="round" stroke-linejoin="round"/>
<path d="M16.4445 19.2899H25.125" stroke="#3D6CB4" stroke-miterlimit="10" stroke-linecap="round" stroke-linejoin="round"/>
<path d="M43.5573 9.88092V13.7455" stroke="#3D6CB4" stroke-miterlimit="10" stroke-linecap="round" stroke-linejoin="round"/>
<path d="M45.7201 11.8132H41.3941" stroke="#3D6CB4" stroke-miterlimit="10" stroke-linecap="round" stroke-linejoin="round"/>
</svg>
